<?xml version="1.0" encoding="UTF-8" standalone="no"?>
<!-- Generator: Adobe Illustrator 12.0.0, SVG Export Plug-In . SVG Version: 6.00 Build 51448)  -->

<svg
   xmlns:dc="http://purl.org/dc/elements/1.1/"
   xmlns:cc="http://creativecommons.org/ns#"
   xmlns:rdf="http://www.w3.org/1999/02/22-rdf-syntax-ns#"
   xmlns:svg="http://www.w3.org/2000/svg"
   xmlns="http://www.w3.org/2000/svg"
   xmlns:sodipodi="http://sodipodi.sourceforge.net/DTD/sodipodi-0.dtd"
   xmlns:inkscape="http://www.inkscape.org/namespaces/inkscape"
   version="1.1"
   id="Layer_1"
   width="13cm"
   height="5.0702648cm"
   viewBox="0 0 460.62992 179.65506"
   overflow="visible"
   enable-background="new 0 0 387 185"
   xml:space="preserve"
   inkscape:version="0.91+devel+osxmenu r12922"
   sodipodi:docname="dinoRoar.svg"
   style="overflow:visible"><metadata
     id="metadata4158"><rdf:RDF><cc:Work
         rdf:about=""><dc:format>image/svg+xml</dc:format><dc:type
           rdf:resource="http://purl.org/dc/dcmitype/StillImage" /><dc:title></dc:title></cc:Work></rdf:RDF></metadata><defs
     id="defs4156" /><sodipodi:namedview
     pagecolor="#ffffff"
     bordercolor="#666666"
     borderopacity="1"
     objecttolerance="10"
     gridtolerance="10"
     guidetolerance="10"
     inkscape:pageopacity="0"
     inkscape:pageshadow="2"
     inkscape:window-width="1287"
     inkscape:window-height="652"
     id="namedview4154"
     showgrid="false"
     fit-margin-top="0"
     fit-margin-left="0"
     fit-margin-right="0"
     fit-margin-bottom="0"
     inkscape:zoom="0.98603159"
     inkscape:cx="219.31187"
     inkscape:cy="93.509852"
     inkscape:window-x="102"
     inkscape:window-y="23"
     inkscape:window-maximized="0"
     inkscape:current-layer="Layer_1"
     units="cm" /><g
     id="g4167"
     transform="matrix(1.7410715,0,0,1.7410715,1.6245975e-5,-1.306692)"
     style="stroke-width:0.57435894"><path
       style="stroke-width:0.41118625"
       inkscape:connector-curvature="0"
       id="path4144"
       d="m 117.38265,76.071723 c 0.99731,-1.758649 2.07256,-2.719252 3.78611,-3.459975 1.38427,-0.598447 3.45648,-0.96235 4.9617,-0.98297 1.18326,-0.01608 0.82462,-0.132139 1.73872,0.76169 0.62082,0.606846 1.13503,1.37483 1.71077,2.028516 2.24209,2.545178 4.78096,4.995605 7.12444,7.328239 3.5596,3.543169 7.05417,7.291536 9.33646,11.814876 -0.96689,0.999401 -2.36863,3.177876 -3.80533,3.334824 -0.72849,0.07972 -1.74293,-0.484139 -2.51091,-0.217776 -1.55591,0.540429 -3.20375,3.032811 -2.15017,4.556213 -0.62851,-0.90922 2.70771,-0.28979 2.73918,-0.2828 1.25877,0.27371 2.41058,0.20065 3.71095,0.21009 3.65048,0.0262 7.28664,-0.3943 10.93678,-0.3943 3.43096,0 7.23875,1.13957 6.95874,-3.39112 -0.27265,-4.414284 -3.58092,-7.918298 -5.41228,-11.823623 -1.9212,-4.097219 -2.45847,-7.526784 -2.80314,-11.951551 -0.38907,-4.992111 -3.81513,-9.3973 -6.02856,-13.590313 4.0647,1.11231 8.63314,1.129793 12.84992,1.875757 4.42408,0.783025 8.81773,1.731744 13.18587,2.780774 3.90951,0.938931 7.71101,2.522106 11.50342,3.831909 8.81877,3.046095 17.5914,5.14208 26.9471,6.083096 3.43061,0.34502 6.92099,0.541124 10.36734,0.651243 4.1542,0.132834 7.78127,0.571176 11.84389,-0.107667 4.42721,-0.739322 8.89044,-1.27171 13.31765,-2.040757 4.51844,-0.785119 12.04244,-0.803644 15.62791,-4.061916 4.30136,-3.90881 -3.71306,-2.22042 -6.04255,-2.129888 -10.05168,0.391512 -19.20604,0.05976 -28.9071,-2.355359 C 217.82394,61.913719 207.55903,56.29589 198.268,50.811256 186.1144,43.636838 174.56799,35.504601 162.99221,27.448224 c -4.96623,-3.456481 -9.94122,-6.482295 -14.95011,-9.788107 -4.92113,-3.247788 -9.26166,-7.425064 -14.79699,-9.6668115 -5.27665,-2.1368757 -12.29063,-3.6029444 -18.00248,-3.0195219 -3.21354,0.3282426 -6.28724,1.3465163 -9.36514,2.2711074 -2.2026,0.661725 -5.11131,2.4395959 -7.472949,1.6139283 -1.233955,-0.4313606 -0.919353,-1.0336588 -2.318308,-0.3338329 -0.922143,0.4610704 -1.677896,1.6667196 -2.831455,1.5782756 -0.309718,-2.1207957 -4.207339,1.579322 -4.974985,1.889739 -0.03912,-2.7283425 -5.117598,1.454532 -5.788062,1.827862 -0.829159,-1.326593 -3.411735,1.262619 -4.438745,1.840799 -0.134234,-1.918754 -4.409389,1.619176 -5.187509,2.172534 -0.615235,-1.311559 -3.701875,1.231858 -4.491879,1.960348 -0.934037,-1.39895 -3.2873,2.014878 -4.331783,2.507764 0.838253,-1.24619 -0.433458,-0.62991 -0.882998,-0.352361 -1.044493,0.645646 -1.623373,1.822621 -2.827266,2.290687 0.02303,-0.141569 0.0413,-0.283842 0.05311,-0.426815 -0.885092,0.347815 -1.892535,1.801295 -2.774837,1.180821 -0.569081,-0.399898 -0.436952,-1.793607 -0.437647,-2.365844 -9.93e-4,-1.735926 0.743175,-3.778774 0.401301,-5.483593 C 56.921195,13.896018 56.686989,10.525882 55.681641,7.3263326 54.973422,5.0761937 53.195544,1.4533332 50.610188,0.91079924 44.083846,-0.45912677 45.337389,7.2973167 43.883206,11.036588 c -1.634561,4.204895 -4.367444,8.161242 -7.662429,11.236347 -1.55485,1.451381 -3.466258,3.106567 -5.514699,3.810237 -1.868768,0.641795 -4.5618,-0.702624 -6.015279,0.158001 -0.90188,0.534129 -1.175232,2.276706 -1.749217,3.098528 -1.535273,2.199103 -5.245537,6.010035 -7.993103,6.38162 C 8.2263912,36.63018 4.6188998,23.402023 2.1642733,18.98565 c -1.0326095,6.347011 0.6152351,12.649629 2.4630155,18.597439 0.6725582,2.164149 3.3781792,6.606042 -0.501274,6.909118 0.1866623,2.704568 -3.1139114,3.658172 -3.86477011,6.140418 -1.21787196,4.023472 2.08199681,9.108903 4.53592851,12.087886 1.1535597,1.399997 2.9083663,2.807341 4.4723112,3.711306 0.2132291,0.123393 4.6393956,1.616026 4.2772496,0.938921 -0.48939,-0.914449 -1.341621,-3.573578 -0.0958,-4.270955 1.635256,-0.914807 2.165897,1.586312 3.049589,2.123246 2.823067,1.716347 6.025763,-0.539029 8.775423,-1.675453 2.537137,-1.048693 5.046992,-1.517453 7.290484,-3.21179 2.388905,-1.804088 4.561095,-4.708612 7.56454,-5.515752 3.320151,-0.892786 7.219877,0.63795 10.045039,2.281953 1.247933,0.726039 2.92164,1.164738 3.085945,2.623111 0.08875,0.793161 -0.531336,2.328434 -0.70122,3.137678 -0.308318,1.475151 -0.552313,2.953101 -0.817276,4.438746 -0.206945,1.160211 -0.367745,2.307467 -0.515262,3.457879 -0.151707,1.179779 0.40969,0.829864 -0.588669,1.345822 -1.319244,0.681294 -2.772732,0.621867 -4.136027,1.627214 -2.634994,1.943564 -4.463217,4.687983 -6.736076,6.996502 -2.664361,2.706663 -5.933483,4.914505 -7.615579,8.431802 -1.343021,2.806637 -1.295477,6.809135 -4.437345,8.260171 -1.666717,0.769741 -6.599748,1.409786 -3.875254,4.307668 1.728935,1.83835 5.342711,0.62886 7.222667,-0.17793 0.761352,-0.32719 3.685792,-0.97948 4.07381,-1.30807 1.061965,-0.898724 0.380323,-2.222873 0.785109,-3.380623 0.559302,-1.601005 1.68979,-1.144465 2.863622,-2.112405 0.874609,-0.721145 0.569091,-1.697474 0.94732,-2.704569 0.438341,-1.165443 1.361894,-1.465024 2.29872,-2.169738 2.060325,-1.547862 4.307312,-2.600387 6.609537,-3.74801 3.169139,-1.580018 6.196351,-3.41103 9.352207,-5.007836 1.146561,-0.580279 2.572083,-0.86202 3.533381,-1.693979 1.594006,-1.378682 4.569484,-6.37393 5.545466,-1.232913 0.118855,0.629214 -0.153812,0.777783 -0.623625,1.444395 -0.966192,1.367831 -1.680695,2.822014 -2.414071,4.366034 -1.468867,3.092586 -2.037957,6.652186 -3.962648,9.523145 -1.637361,2.4417 -4.784819,3.734031 -7.658229,3.638605 -3.257924,-0.108015 -5.6783,1.305266 -8.155304,3.478844 -0.988559,0.86797 -1.203188,1.54822 0.216724,2.14003 1.381482,0.57573 2.232314,-0.64039 3.476058,-0.53413 0.60894,2.05788 1.719155,1.76775 3.541779,1.49928 0.978771,-0.14401 1.637351,-0.19225 2.646888,-0.32824 1.701673,-0.22932 2.913261,-0.22373 4.724695,-0.1213 0.862716,0.0489 2.14352,0.13039 2.967785,-0.13877 1.584922,-0.51876 3.908114,-2.86921 4.85193,-4.216088 1.261226,-1.799194 3.273312,-3.743115 4.921146,-5.276999 2.244892,-2.088986 5.7608,-2.746166 7.358996,-5.476944 1.049387,-1.792562 1.218576,-4.001456 2.299425,-5.755905 0.353052,-0.57328 1.056387,-0.950467 0.853631,-1.593311 1.635951,-1.87121 0.24609,-7.318103 0.401301,-9.879344 1.360495,0.822875 15.851278,7.24154 16.081285,4.827458 -0.322991,3.392515 0.390818,6.856679 1.476549,10.058322 0.876,2.582219 2.3211,4.777829 2.233,7.604043 -0.0643,2.044946 -0.32579,2.157498 -2.1582,2.626616 -1.42062,0.363188 -2.676237,0.966897 -4.187753,0.779172 -2.948912,-0.366335 -5.169332,1.152508 -4.990354,4.47161 1.344422,-0.70402 0.916554,-0.52959 2.248387,-0.23316 0.722197,0.16081 1.31436,0.34048 1.819824,-0.27929 1.463972,1.02806 4.369534,0.99764 6.124336,1.17452 2.73463,0.27581 5.51401,0.37543 8.25948,0.25309 3.34006,-0.14891 5.18611,-0.38662 6.59309,-3.514507 0.1643,-0.365283 0.61139,-1.029463 0.62468,-1.424112 0.0143,-0.416679 -0.4013,-0.522252 -0.49429,-0.958161 -0.69317,-3.262818 -0.11885,-6.743413 -0.32893,-10.068111 -0.21883,-3.444934 -0.26392,-7.073055 1.53492,-10.156895 0.01,-0.01678 0.0193,-0.03395 0.029,-0.05073 z" /><g
       transform="translate(23.446902,-9.9134755)"
       id="g4168"
       style="stroke-width:0.57435894"><text
         xml:space="preserve"
         style="font-style:normal;font-weight:normal;font-size:21.33333397px;line-height:125%;font-family:sans-serif;letter-spacing:0px;word-spacing:0px;fill:#ff0000;fill-opacity:1;stroke:none;stroke-width:0.57435894px;stroke-linecap:butt;stroke-linejoin:miter;stroke-opacity:1"
         x="25.658407"
         y="59.478916"
         id="text4160"
         sodipodi:linespacing="125%"><tspan
           sodipodi:role="line"
           id="tspan4162"
           x="25.658407"
           y="59.478916"
           style="font-style:normal;font-variant:normal;font-weight:bold;font-stretch:normal;font-family:Arial;-inkscape-font-specification:'Arial Bold';fill:#0000ff;stroke-width:0.57435894px">Dino</tspan></text>
<text
         xml:space="preserve"
         style="font-style:normal;font-weight:normal;font-size:21.33333397px;line-height:125%;font-family:sans-serif;letter-spacing:0px;word-spacing:0px;fill:#ff0000;fill-opacity:1;stroke:none;stroke-width:0.57435894px;stroke-linecap:butt;stroke-linejoin:miter;stroke-opacity:1"
         x="73.476349"
         y="59.603916"
         id="text4164"
         sodipodi:linespacing="125%"><tspan
           sodipodi:role="line"
           id="tspan4166"
           x="73.476349"
           y="59.603916"
           style="font-style:normal;font-variant:normal;font-weight:900;font-stretch:normal;font-family:'Arial Black';-inkscape-font-specification:'Arial Black,  Heavy';stroke-width:0.57435894px">ROAR</tspan></text>
</g></g></svg>